<svg width="164" height="127" viewBox="0 0 164 127" fill="none" xmlns="http://www.w3.org/2000/svg">
<path fill-rule="evenodd" clip-rule="evenodd" d="M138.804 48.0238C143.424 46.3438 143.1 39.703 138.337 38.4815L14.6618 6.76054C8.88216 5.27814 4.01645 11.2432 6.62997 16.6072L39.3516 83.764C41.653 88.4873 47.2171 90.6241 52.0884 88.6553L77 78.5872L84.0104 87.1763C93.0624 98.2668 110.812 94.8641 115.12 81.2123L123.883 53.4485L138.804 48.0238Z" fill="white"/>
<path d="M102.939 121.811L95.9089 113.136" stroke="black" stroke-width="2" stroke-linecap="round"/>
<path d="M91.2408 107.956L72.8041 83.7878" stroke="black" stroke-width="2" stroke-linecap="round"/>
<path fill-rule="evenodd" clip-rule="evenodd" d="M155.961 40.4183C157.999 39.9137 157.982 37.0112 155.939 36.5301L12.6833 2.80861L9.22529 1.99461C7.56327 1.60338 6.20689 3.34047 6.98944 4.85803L46.9224 82.298C47.4131 83.2497 48.5664 83.6461 49.5385 83.1971L101.733 59.093L26.3302 13.8156C25.2679 13.1777 26.0852 11.559 27.2292 12.035L118.015 49.8142L155.961 40.4183Z" stroke="black" stroke-width="2"/>
<path d="M118 50L105.857 90.9937C105.534 92.0842 103.931 91.8752 103.898 90.7383L103 59.3502" stroke="black" stroke-width="2"/>
<path d="M100 95L82 73" stroke="black" stroke-width="2" stroke-linecap="round"/>
</svg>
