<svg width="328" height="253" viewBox="0 0 328 253" fill="none" xmlns="http://www.w3.org/2000/svg">
<path fill-rule="evenodd" clip-rule="evenodd" d="M34.2665 88.6816C29.6355 87.007 29.9593 80.352 34.7309 79.1348L313.222 8.09084C319.006 6.61526 323.865 12.5923 321.238 17.9531L244.855 173.875C242.55 178.58 237.006 180.708 232.145 178.755L173.442 155.157L138.137 198.179C129.078 209.219 111.385 205.817 107.066 192.205L79.3931 105L34.2665 88.6816Z" fill="white"/>
<path d="M122.084 242.063L136.163 224.718" stroke="black" stroke-width="2" stroke-linecap="round"/>
<path d="M145.511 214.361L182.431 166.038" stroke="black" stroke-width="2" stroke-linecap="round"/>
<path fill-rule="evenodd" clip-rule="evenodd" d="M8.03916 77.0279C6.00135 76.5233 6.01812 73.6208 8.06162 73.1398L301.569 4.05166L312.656 1.44186C314.318 1.05064 315.674 2.78775 314.892 4.3053L232.46 164.157C231.969 165.108 230.816 165.505 229.844 165.056L124.096 116.221L285.977 19.0187C287.039 18.3808 286.222 16.7621 285.078 17.2381L91.6461 97.7296L8.03916 77.0279Z" stroke="black" stroke-width="2"/>
<path d="M91.6461 97.7295L118.496 186.148C118.825 187.232 120.419 187.019 120.452 185.887L122.488 116.484" stroke="black" stroke-width="2"/>
<path d="M127.594 188.923L163.429 144.865" stroke="black" stroke-width="2" stroke-linecap="round"/>
</svg>
