<svg width="234" height="66" viewBox="0 0 234 66" fill="none" xmlns="http://www.w3.org/2000/svg">
<rect width="66" height="66" rx="24.75" fill="black"/>
<path fill-rule="evenodd" clip-rule="evenodd" d="M15 41.25L20.9461 30.75L24.75 37.5354L22.7146 41.25H15" fill="white"/>
<path fill-rule="evenodd" clip-rule="evenodd" d="M26.1133 19.5L22.5 26.7088L33.2881 48.75L36.75 41.3336L26.1133 19.5" fill="white"/>
<path fill-rule="evenodd" clip-rule="evenodd" d="M35.25 30.6087L40.8193 19.5L51.75 41.25H44.4281L40.7155 33.9308L38.9109 37.7203L35.25 30.6087" fill="white"/>
<path fill-rule="evenodd" clip-rule="evenodd" d="M95.0737 29.0499L94.779 28.5036L92.3393 24.0707V32.0569H89.4326V18H92.0878L96.3196 25.6935L100.528 18H103.217V32.0569H100.308V24.027L97.8492 28.5036L97.5546 29.0499H95.0737" fill="#0A0B09"/>
<path fill-rule="evenodd" clip-rule="evenodd" d="M129.553 29.3541C130.813 29.3541 131.826 28.9665 132.591 28.1889C133.357 27.4111 133.739 26.3577 133.739 25.0284C133.739 23.7215 133.354 22.6725 132.586 21.8847C131.817 21.0972 130.806 20.702 129.553 20.702C128.292 20.702 127.278 21.0972 126.514 21.8847C125.748 22.6725 125.366 23.7215 125.366 25.0284C125.366 26.3577 125.746 27.4111 126.508 28.1889C127.269 28.9665 128.285 29.3541 129.553 29.3541ZM129.553 18C130.281 18 130.986 18.0868 131.667 18.2611C132.349 18.4353 132.993 18.7105 133.603 19.084C134.211 19.4585 134.74 19.9162 135.192 20.4578C135.645 20.9982 136.002 21.6612 136.263 22.445C136.525 23.2299 136.657 24.091 136.657 25.0285C136.657 25.9659 136.525 26.8266 136.263 27.6111C136.002 28.3963 135.645 29.0591 135.192 29.6005C134.74 30.1411 134.211 30.5992 133.603 30.9733C132.993 31.3464 132.349 31.623 131.667 31.7964C130.986 31.9705 130.281 32.0569 129.553 32.0569C128.816 32.0569 128.108 31.9705 127.427 31.7964C126.745 31.623 126.101 31.3464 125.496 30.9733C124.892 30.5992 124.366 30.1411 123.917 29.6005C123.47 29.0591 123.114 28.3963 122.852 27.6111C122.59 26.8266 122.458 25.9659 122.458 25.0285C122.458 24.0993 122.59 23.2442 122.852 22.4632C123.114 21.6823 123.47 21.0209 123.917 20.4793C124.366 19.9381 124.892 19.4787 125.496 19.1015C126.101 18.723 126.745 18.4458 127.427 18.2674C128.108 18.0898 128.816 18 129.553 18V18Z" fill="#0A0B09"/>
<path fill-rule="evenodd" clip-rule="evenodd" d="M168.502 32.0569H164.983L160.797 27.0987L158.806 29.4642V32.0569H155.899V18H158.806V25.4102L165.147 18H168.547L162.589 25.0065L168.502 32.0569" fill="#0A0B09"/>
<path fill-rule="evenodd" clip-rule="evenodd" d="M200.577 32.0569H197.058L192.872 27.0987L190.882 29.4642V32.0569H187.975V18H190.882V25.4102L197.221 18H200.622L194.663 25.0065L200.577 32.0569" fill="#0A0B09"/>
<path fill-rule="evenodd" clip-rule="evenodd" d="M228.126 18H224.859L219.819 32.0569H222.728L223.722 29.2901H223.722L224.693 26.5874H224.684L226.499 21.5644L230.258 32.0569H233.166L228.126 18" fill="#0A0B09"/>
<path fill-rule="evenodd" clip-rule="evenodd" d="M128.485 45.9757C128.485 46.5338 128.209 46.9902 127.655 47.3434C127.102 47.6974 126.347 47.8737 125.393 47.8737C125.002 47.8737 124.623 47.8272 124.257 47.7332C123.891 47.6384 123.58 47.5176 123.325 47.3708C123.069 47.2234 122.858 47.0647 122.691 46.892C122.523 46.7206 122.418 46.5535 122.375 46.3919L123.702 45.9559C123.736 46.1013 123.934 46.2521 124.297 46.4094C124.659 46.5662 125.058 46.6447 125.492 46.6447C125.94 46.6447 126.33 46.5817 126.663 46.4567C126.996 46.3308 127.163 46.1708 127.163 45.9757C127.163 45.7971 127.039 45.6461 126.792 45.5219C126.545 45.3976 126.092 45.2754 125.433 45.1532C125.042 45.0829 124.678 44.9903 124.341 44.8729C124.005 44.7557 123.702 44.6168 123.431 44.4566C123.161 44.2967 122.948 44.1056 122.793 43.8837C122.637 43.6633 122.559 43.4265 122.559 43.175C122.559 42.7095 122.822 42.305 123.347 41.9637C123.872 41.621 124.543 41.4497 125.358 41.4497C125.845 41.4497 126.303 41.5214 126.73 41.6631C127.158 41.8059 127.505 41.9905 127.772 42.2188C128.038 42.447 128.209 42.6912 128.281 42.9523L126.959 43.3782C126.909 43.1772 126.728 43.0093 126.417 42.8752C126.105 42.7417 125.719 42.6745 125.259 42.6745C124.881 42.6745 124.557 42.7164 124.286 42.8007C124.017 42.8851 123.881 43.0002 123.881 43.1448C123.881 43.2882 124.027 43.4265 124.319 43.562C124.611 43.6971 125.031 43.8175 125.582 43.9238C126.589 44.1251 127.325 44.3915 127.789 44.7213C128.253 45.0521 128.485 45.4699 128.485 45.9757" fill="black"/>
<path fill-rule="evenodd" clip-rule="evenodd" d="M138.15 47.8737H136.822V42.7095H134.878V41.4799H140.104V42.7095H138.15V47.8737" fill="black"/>
<path fill-rule="evenodd" clip-rule="evenodd" d="M153.227 41.4799V44.583C153.227 45.0086 153.167 45.4033 153.048 45.7671C152.929 46.1307 152.767 46.4398 152.561 46.6939C152.355 46.949 152.115 47.1658 151.84 47.3456C151.565 47.5268 151.273 47.6587 150.962 47.7453C150.653 47.8309 150.332 47.8737 150 47.8737C149.669 47.8737 149.349 47.8309 149.038 47.7453C148.729 47.6587 148.435 47.5268 148.159 47.3456C147.882 47.1658 147.641 46.949 147.435 46.6939C147.229 46.4398 147.067 46.1307 146.948 45.7671C146.829 45.4033 146.769 45.0086 146.769 44.583V41.4799H148.097V44.583C148.097 45.2172 148.27 45.7192 148.618 46.0892C148.966 46.4593 149.427 46.6448 150 46.6448C150.574 46.6448 151.035 46.4593 151.382 46.0892C151.731 45.7192 151.904 45.2172 151.904 44.583V41.4799H153.227" fill="black"/>
<path fill-rule="evenodd" clip-rule="evenodd" d="M162.225 42.7095H161.419V46.6448H162.225C162.632 46.6448 162.982 46.5971 163.272 46.5008C163.561 46.4048 163.787 46.2654 163.947 46.0822C164.109 45.8992 164.224 45.6926 164.295 45.4651C164.366 45.2376 164.402 44.974 164.402 44.6773C164.402 44.3795 164.366 44.1167 164.295 43.8894C164.224 43.6611 164.109 43.4553 163.947 43.2713C163.787 43.0887 163.561 42.9491 163.272 42.8527C162.982 42.7575 162.632 42.7095 162.225 42.7095ZM162.225 41.4799C163.345 41.4799 164.209 41.7552 164.815 42.305C165.422 42.8557 165.725 43.6464 165.725 44.6772C165.725 45.7081 165.422 46.4988 164.815 47.0484C164.209 47.5983 163.345 47.8737 162.225 47.8737H160.097V41.4799H162.225V41.4799Z" fill="black"/>
<path fill-rule="evenodd" clip-rule="evenodd" d="M172.645 47.8737H173.972V41.4799H172.645V47.8737Z" fill="black"/>
<path fill-rule="evenodd" clip-rule="evenodd" d="M184.068 46.6448C184.641 46.6448 185.102 46.4678 185.45 46.1138C185.799 45.7607 185.972 45.2819 185.972 44.6773C185.972 44.0825 185.797 43.6055 185.448 43.2473C185.098 42.8887 184.638 42.7095 184.068 42.7095C183.494 42.7095 183.034 42.8887 182.686 43.2473C182.338 43.6055 182.164 44.0825 182.164 44.6773C182.164 45.2819 182.337 45.7607 182.683 46.1138C183.03 46.4678 183.491 46.6448 184.068 46.6448ZM184.068 41.4799C184.399 41.4799 184.72 41.52 185.03 41.5987C185.34 41.6786 185.633 41.8029 185.91 41.9736C186.187 42.1437 186.428 42.3513 186.633 42.598C186.839 42.8444 187.002 43.1448 187.121 43.5024C187.24 43.8598 187.3 44.251 187.3 44.6772C187.3 45.1027 187.24 45.4945 187.121 45.8513C187.002 46.2086 186.839 46.5099 186.633 46.7557C186.428 47.0023 186.187 47.2109 185.91 47.3807C185.633 47.5506 185.34 47.6756 185.03 47.7552C184.72 47.8343 184.399 47.8737 184.068 47.8737C183.733 47.8737 183.411 47.8343 183.101 47.7552C182.791 47.6756 182.499 47.5506 182.224 47.3807C181.948 47.2109 181.709 47.0023 181.505 46.7557C181.301 46.5099 181.139 46.2086 181.021 45.8513C180.901 45.4945 180.842 45.1027 180.842 44.6772C180.842 44.2544 180.901 43.8652 181.021 43.5103C181.139 43.1547 181.301 42.8541 181.505 42.6084C181.709 42.3612 181.948 42.152 182.224 41.9807C182.499 41.8095 182.791 41.6829 183.101 41.6013C183.411 41.5208 183.733 41.4799 184.068 41.4799V41.4799Z" fill="black"/>
<path fill-rule="evenodd" clip-rule="evenodd" d="M200.041 45.9757C200.041 46.5338 199.764 46.9902 199.211 47.3434C198.657 47.6974 197.903 47.8737 196.949 47.8737C196.557 47.8737 196.179 47.8272 195.813 47.7332C195.446 47.6384 195.136 47.5176 194.881 47.3708C194.626 47.2234 194.414 47.0647 194.247 46.892C194.079 46.7206 193.974 46.5535 193.931 46.3919L195.258 45.9559C195.291 46.1013 195.489 46.2521 195.853 46.4094C196.216 46.5662 196.614 46.6447 197.048 46.6447C197.495 46.6447 197.886 46.5817 198.219 46.4567C198.552 46.3308 198.719 46.1708 198.719 45.9757C198.719 45.7971 198.595 45.6461 198.348 45.5219C198.101 45.3976 197.647 45.2754 196.989 45.1532C196.597 45.0829 196.234 44.9903 195.897 44.8729C195.56 44.7557 195.257 44.6168 194.987 44.4566C194.717 44.2967 194.505 44.1056 194.348 43.8837C194.192 43.6633 194.115 43.4265 194.115 43.175C194.115 42.7095 194.378 42.305 194.902 41.9637C195.428 41.621 196.099 41.4497 196.914 41.4497C197.401 41.4497 197.859 41.5214 198.286 41.6631C198.714 41.8059 199.061 41.9905 199.327 42.2188C199.594 42.447 199.764 42.6912 199.837 42.9523L198.515 43.3782C198.465 43.1772 198.284 43.0093 197.973 42.8752C197.661 42.7417 197.275 42.6745 196.814 42.6745C196.437 42.6745 196.113 42.7164 195.843 42.8007C195.572 42.8851 195.437 43.0002 195.437 43.1448C195.437 43.2882 195.584 43.4265 195.875 43.562C196.167 43.6971 196.587 43.8175 197.138 43.9238C198.145 44.1251 198.881 44.3915 199.345 44.7213C199.808 45.0521 200.041 45.4699 200.041 45.9757" fill="black"/>
<path fill-rule="evenodd" clip-rule="evenodd" d="M89.25 45.1084H120.149V44.216H89.25V45.1084Z" fill="black"/>
<path fill-rule="evenodd" clip-rule="evenodd" d="M202.267 45.1084H233.166V44.216H202.267V45.1084Z" fill="black"/>
</svg>
