<svg width="311" height="88" viewBox="0 0 311 88" fill="none" xmlns="http://www.w3.org/2000/svg">
<rect width="88" height="88" rx="33" fill="black"/>
<path fill-rule="evenodd" clip-rule="evenodd" d="M20 55L27.9281 41L33 50.0472L30.2861 55H20Z" fill="white"/>
<path fill-rule="evenodd" clip-rule="evenodd" d="M34.8177 26L30 35.6117L44.3841 65L49 55.1115L34.8177 26Z" fill="white"/>
<path fill-rule="evenodd" clip-rule="evenodd" d="M47 40.8116L54.4257 26L69 55H59.2375L54.2873 45.2411L51.8813 50.2938L47 40.8116Z" fill="white"/>
<path fill-rule="evenodd" clip-rule="evenodd" d="M126.765 38.7332L126.372 38.0048L123.119 32.0942V42.7425H119.243V24H122.783L128.426 34.258L134.037 24H137.622V42.7425H133.743V32.036L130.465 38.0048L130.072 38.7332H126.765Z" fill="#0A0B09"/>
<path fill-rule="evenodd" clip-rule="evenodd" d="M172.738 39.1388C174.417 39.1388 175.768 38.622 176.788 37.5852C177.809 36.5482 178.318 35.1436 178.318 33.3713C178.318 31.6287 177.805 30.2301 176.781 29.1796C175.756 28.1297 174.407 27.6027 172.738 27.6027C171.055 27.6027 169.704 28.1297 168.685 29.1796C167.664 30.2301 167.154 31.6287 167.154 33.3713C167.154 35.1436 167.661 36.5482 168.677 37.5852C169.692 38.622 171.047 39.1388 172.738 39.1388ZM172.738 24C173.708 24 174.648 24.1157 175.555 24.3482C176.465 24.5804 177.323 24.9474 178.137 25.4454C178.947 25.9447 179.653 26.5549 180.256 27.277C180.86 27.9976 181.335 28.8816 181.684 29.9267C182.034 30.9732 182.209 32.1213 182.209 33.3713C182.209 34.6212 182.034 35.7689 181.684 36.8148C181.335 37.8617 180.86 38.7455 180.256 39.4674C179.653 40.1882 178.947 40.7989 178.137 41.2977C177.323 41.7952 176.465 42.164 175.555 42.3952C174.648 42.6274 173.708 42.7425 172.738 42.7425C171.754 42.7425 170.811 42.6274 169.902 42.3952C168.994 42.164 168.134 41.7952 167.328 41.2977C166.522 40.7989 165.821 40.1882 165.223 39.4674C164.626 38.7455 164.151 37.8617 163.802 36.8148C163.452 35.7689 163.278 34.6212 163.278 33.3713C163.278 32.1323 163.452 30.9922 163.802 29.9509C164.151 28.9098 164.626 28.0279 165.223 27.3058C165.821 26.5842 166.522 25.9715 167.328 25.4687C168.134 24.964 168.994 24.5944 169.902 24.3565C170.811 24.1197 171.754 24 172.738 24Z" fill="#0A0B09"/>
<path fill-rule="evenodd" clip-rule="evenodd" d="M224.67 42.7425H219.978L214.397 36.1315L211.742 39.2856V42.7425H207.866V24H211.742V33.8803L220.196 24H224.729L216.786 33.342L224.67 42.7425Z" fill="#0A0B09"/>
<path fill-rule="evenodd" clip-rule="evenodd" d="M267.436 42.7425H262.744L257.162 36.1315L254.51 39.2856V42.7425H250.633V24H254.51V33.8803L262.961 24H267.496L259.551 33.342L267.436 42.7425Z" fill="#0A0B09"/>
<path fill-rule="evenodd" clip-rule="evenodd" d="M304.168 24H299.812L293.092 42.7425H296.97L298.295 39.0534H298.296L299.59 35.4499H299.578L301.998 28.7525L307.011 42.7425H310.888L304.168 24Z" fill="#0A0B09"/>
<path fill-rule="evenodd" clip-rule="evenodd" d="M171.314 61.3009C171.314 62.0451 170.945 62.6537 170.207 63.1246C169.469 63.5965 168.463 63.8317 167.191 63.8317C166.669 63.8317 166.164 63.7697 165.676 63.6443C165.187 63.5178 164.773 63.3568 164.433 63.1611C164.092 62.9646 163.811 62.753 163.588 62.5227C163.365 62.2942 163.224 62.0714 163.167 61.8558L164.936 61.2746C164.981 61.4684 165.245 61.6695 165.729 61.8792C166.213 62.0883 166.744 62.193 167.323 62.193C167.92 62.193 168.44 62.109 168.884 61.9423C169.329 61.7745 169.55 61.5611 169.55 61.3009C169.55 61.0628 169.386 60.8615 169.057 60.6958C168.727 60.5302 168.123 60.3672 167.243 60.2043C166.722 60.1106 166.237 59.9871 165.789 59.8306C165.34 59.6744 164.936 59.4891 164.575 59.2754C164.215 59.0623 163.931 58.8075 163.724 58.5117C163.516 58.2177 163.412 57.902 163.412 57.5667C163.412 56.946 163.762 56.4067 164.463 55.9517C165.163 55.4948 166.057 55.2663 167.144 55.2663C167.794 55.2663 168.404 55.3619 168.974 55.5509C169.544 55.7412 170.006 55.9874 170.362 56.2918C170.718 56.596 170.945 56.9216 171.042 57.2698L169.279 57.8376C169.212 57.5697 168.971 57.3458 168.556 57.167C168.141 56.989 167.626 56.8993 167.012 56.8993C166.507 56.8993 166.076 56.9552 165.715 57.0676C165.355 57.1801 165.175 57.3337 165.175 57.5264C165.175 57.7176 165.37 57.902 165.759 58.0827C166.148 58.2628 166.709 58.4233 167.442 58.5651C168.786 58.8335 169.767 59.1887 170.385 59.6284C171.004 60.0695 171.314 60.6266 171.314 61.3009Z" fill="black"/>
<path fill-rule="evenodd" clip-rule="evenodd" d="M184.199 63.8317H182.429V56.946H179.837V55.3066H186.804V56.946H184.199V63.8317Z" fill="black"/>
<path fill-rule="evenodd" clip-rule="evenodd" d="M204.303 55.3066V59.444C204.303 60.0115 204.223 60.5377 204.064 61.0228C203.905 61.5077 203.689 61.9197 203.415 62.2585C203.14 62.5987 202.82 62.8878 202.453 63.1275C202.086 63.3691 201.697 63.545 201.283 63.6604C200.87 63.7745 200.443 63.8317 200.001 63.8317C199.559 63.8317 199.132 63.7745 198.718 63.6604C198.305 63.545 197.914 63.3691 197.545 63.1275C197.176 62.8878 196.854 62.5987 196.58 62.2585C196.306 61.9197 196.09 61.5077 195.93 61.0228C195.771 60.5377 195.692 60.0115 195.692 59.444V55.3066H197.462V59.444C197.462 60.2897 197.694 60.9589 198.158 61.4524C198.621 61.9458 199.236 62.193 200.001 62.193C200.765 62.193 201.379 61.9458 201.843 61.4524C202.308 60.9589 202.539 60.2897 202.539 59.444V55.3066H204.303Z" fill="black"/>
<path fill-rule="evenodd" clip-rule="evenodd" d="M216.3 56.946H215.226V62.193H216.3C216.843 62.193 217.309 62.1294 217.696 62.0011C218.082 61.873 218.382 61.6873 218.596 61.443C218.811 61.1989 218.965 60.9235 219.06 60.6201C219.155 60.3168 219.203 59.9654 219.203 59.5697C219.203 59.1726 219.155 58.8223 219.06 58.5192C218.965 58.2148 218.811 57.9404 218.596 57.695C218.382 57.4515 218.082 57.2655 217.696 57.1369C217.309 57.0099 216.843 56.946 216.3 56.946ZM216.3 55.3066C217.794 55.3066 218.945 55.6736 219.753 56.4067C220.562 57.1409 220.967 58.1952 220.967 59.5697C220.967 60.9442 220.562 61.9984 219.753 62.7313C218.945 63.4644 217.794 63.8317 216.3 63.8317H213.463V55.3066H216.3Z" fill="black"/>
<path fill-rule="evenodd" clip-rule="evenodd" d="M230.193 63.8317H231.962V55.3066H230.193V63.8317Z" fill="black"/>
<path fill-rule="evenodd" clip-rule="evenodd" d="M245.424 62.193C246.189 62.193 246.803 61.957 247.267 61.4851C247.732 61.0142 247.963 60.3758 247.963 59.5697C247.963 58.7766 247.73 58.1407 247.264 57.6631C246.797 57.185 246.185 56.946 245.424 56.946C244.66 56.946 244.045 57.185 243.581 57.6631C243.118 58.1407 242.886 58.7766 242.886 59.5697C242.886 60.3758 243.117 61.0142 243.578 61.4851C244.04 61.957 244.655 62.193 245.424 62.193ZM245.424 55.3066C245.866 55.3066 246.294 55.36 246.707 55.465C247.12 55.5715 247.511 55.7372 247.88 55.9648C248.249 56.1917 248.57 56.4685 248.845 56.7973C249.119 57.1259 249.336 57.5264 249.495 58.0032C249.653 58.4797 249.733 59.0013 249.733 59.5697C249.733 60.1369 249.653 60.6593 249.495 61.135C249.336 61.6115 249.119 62.0132 248.845 62.3409C248.57 62.6698 248.249 62.9479 247.88 63.1742C247.511 63.4008 247.12 63.5675 246.707 63.6736C246.294 63.7791 245.866 63.8317 245.424 63.8317C244.978 63.8317 244.548 63.7791 244.136 63.6736C243.721 63.5675 243.332 63.4008 242.965 63.1742C242.598 62.9479 242.279 62.6698 242.007 62.3409C241.735 62.0132 241.52 61.6115 241.361 61.135C241.202 60.6593 241.123 60.1369 241.123 59.5697C241.123 59.0059 241.202 58.487 241.361 58.0137C241.52 57.5396 241.735 57.1388 242.007 56.8113C242.279 56.4816 242.598 56.2027 242.965 55.9742C243.332 55.746 243.721 55.5772 244.136 55.4685C244.548 55.3611 244.978 55.3066 245.424 55.3066Z" fill="black"/>
<path fill-rule="evenodd" clip-rule="evenodd" d="M266.721 61.3009C266.721 62.0451 266.352 62.6537 265.614 63.1246C264.876 63.5965 263.871 63.8317 262.598 63.8317C262.076 63.8317 261.571 63.7697 261.083 63.6443C260.595 63.5178 260.181 63.3568 259.84 63.1611C259.501 62.9646 259.219 62.753 258.995 62.5227C258.772 62.2942 258.632 62.0714 258.575 61.8558L260.344 61.2746C260.388 61.4684 260.652 61.6695 261.137 61.8792C261.62 62.0883 262.152 62.193 262.73 62.193C263.327 62.193 263.847 62.109 264.291 61.9423C264.736 61.7745 264.958 61.5611 264.958 61.3009C264.958 61.0628 264.793 60.8615 264.464 60.6958C264.135 60.5302 263.53 60.3672 262.652 60.2043C262.129 60.1106 261.645 59.9871 261.196 59.8306C260.747 59.6744 260.343 59.4891 259.982 59.2754C259.623 59.0623 259.339 58.8075 259.131 58.5117C258.923 58.2177 258.82 57.902 258.82 57.5667C258.82 56.946 259.17 56.4067 259.87 55.9517C260.57 55.4948 261.465 55.2663 262.552 55.2663C263.201 55.2663 263.811 55.3619 264.382 55.5509C264.952 55.7412 265.414 55.9874 265.77 56.2918C266.126 56.596 266.352 56.9216 266.45 57.2698L264.686 57.8376C264.62 57.5697 264.379 57.3458 263.964 57.167C263.547 56.989 263.033 56.8993 262.419 56.8993C261.915 56.8993 261.483 56.9552 261.123 57.0676C260.763 57.1801 260.582 57.3337 260.582 57.5264C260.582 57.7176 260.778 57.902 261.167 58.0827C261.555 58.2628 262.116 58.4233 262.85 58.5651C264.192 58.8335 265.174 59.1887 265.793 59.6284C266.411 60.0695 266.721 60.6266 266.721 61.3009Z" fill="black"/>
<path fill-rule="evenodd" clip-rule="evenodd" d="M119 60.1444H160.198V58.9547H119V60.1444Z" fill="black"/>
<path fill-rule="evenodd" clip-rule="evenodd" d="M269.689 60.1444H310.888V58.9547H269.689V60.1444Z" fill="black"/>
</svg>
