<svg width="234" height="67" viewBox="0 0 234 67" fill="none" xmlns="http://www.w3.org/2000/svg">
<rect y="0.25" width="66" height="66" rx="24.75" fill="white"/>
<path fill-rule="evenodd" clip-rule="evenodd" d="M15 41.5L20.9461 31L24.75 37.7854L22.7146 41.5H15Z" fill="black"/>
<path fill-rule="evenodd" clip-rule="evenodd" d="M26.1133 19.75L22.5 26.9588L33.2881 49L36.75 41.5836L26.1133 19.75Z" fill="black"/>
<path fill-rule="evenodd" clip-rule="evenodd" d="M35.25 30.8587L40.8193 19.75L51.75 41.5H44.4281L40.7155 34.1808L38.9109 37.9703L35.25 30.8587Z" fill="black"/>
<path fill-rule="evenodd" clip-rule="evenodd" d="M95.0737 28.5499L94.779 28.0036L92.3393 23.5707V31.5569H89.4326V17.5H92.0878L96.3196 25.1935L100.528 17.5H103.217V31.5569H100.308V23.527L97.8492 28.0036L97.5546 28.5499H95.0737Z" fill="white"/>
<path fill-rule="evenodd" clip-rule="evenodd" d="M129.553 28.854C130.813 28.854 131.826 28.4664 132.591 27.6888C133.357 26.911 133.739 25.8576 133.739 24.5283C133.739 23.2214 133.354 22.1724 132.586 21.3846C131.817 20.5971 130.806 20.2019 129.553 20.2019C128.292 20.2019 127.278 20.5971 126.514 21.3846C125.748 22.1724 125.366 23.2214 125.366 24.5283C125.366 25.8576 125.746 26.911 126.508 27.6888C127.269 28.4664 128.285 28.854 129.553 28.854ZM129.553 17.5C130.281 17.5 130.986 17.5868 131.667 17.7611C132.349 17.9353 132.993 18.2105 133.603 18.584C134.211 18.9585 134.74 19.4162 135.192 19.9578C135.645 20.4982 136.002 21.1612 136.263 21.945C136.525 22.7299 136.657 23.591 136.657 24.5285C136.657 25.4659 136.525 26.3266 136.263 27.1111C136.002 27.8963 135.645 28.5591 135.192 29.1005C134.74 29.6411 134.211 30.0992 133.603 30.4733C132.993 30.8464 132.349 31.123 131.667 31.2964C130.986 31.4705 130.281 31.5569 129.553 31.5569C128.816 31.5569 128.108 31.4705 127.427 31.2964C126.745 31.123 126.101 30.8464 125.496 30.4733C124.892 30.0992 124.366 29.6411 123.917 29.1005C123.47 28.5591 123.114 27.8963 122.852 27.1111C122.59 26.3266 122.458 25.4659 122.458 24.5285C122.458 23.5993 122.59 22.7442 122.852 21.9632C123.114 21.1823 123.47 20.5209 123.917 19.9793C124.366 19.4381 124.892 18.9787 125.496 18.6015C126.101 18.223 126.745 17.9458 127.427 17.7674C128.108 17.5898 128.816 17.5 129.553 17.5Z" fill="white"/>
<path fill-rule="evenodd" clip-rule="evenodd" d="M168.502 31.5569H164.983L160.797 26.5987L158.806 28.9642V31.5569H155.899V17.5H158.806V24.9102L165.147 17.5H168.547L162.589 24.5065L168.502 31.5569Z" fill="white"/>
<path fill-rule="evenodd" clip-rule="evenodd" d="M200.577 31.5569H197.058L192.872 26.5987L190.882 28.9642V31.5569H187.975V17.5H190.882V24.9102L197.221 17.5H200.622L194.663 24.5065L200.577 31.5569Z" fill="white"/>
<path fill-rule="evenodd" clip-rule="evenodd" d="M228.126 17.5H224.859L219.819 31.5569H222.728L223.722 28.7901H223.722L224.693 26.0875H224.684L226.499 21.0644L230.258 31.5569H233.166L228.126 17.5Z" fill="white"/>
<path fill-rule="evenodd" clip-rule="evenodd" d="M128.485 45.4757C128.485 46.0338 128.209 46.4902 127.655 46.8434C127.102 47.1974 126.347 47.3737 125.393 47.3737C125.002 47.3737 124.623 47.3272 124.257 47.2332C123.891 47.1384 123.58 47.0176 123.325 46.8708C123.069 46.7234 122.858 46.5647 122.691 46.392C122.523 46.2206 122.418 46.0535 122.375 45.8919L123.702 45.4559C123.736 45.6013 123.934 45.7521 124.297 45.9094C124.659 46.0662 125.058 46.1447 125.492 46.1447C125.94 46.1447 126.33 46.0817 126.663 45.9567C126.996 45.8308 127.163 45.6708 127.163 45.4757C127.163 45.2971 127.039 45.1461 126.792 45.0219C126.545 44.8976 126.092 44.7754 125.433 44.6532C125.042 44.5829 124.678 44.4903 124.341 44.3729C124.005 44.2557 123.702 44.1168 123.431 43.9566C123.161 43.7967 122.948 43.6056 122.793 43.3837C122.637 43.1633 122.559 42.9265 122.559 42.675C122.559 42.2095 122.822 41.805 123.347 41.4637C123.872 41.121 124.543 40.9497 125.358 40.9497C125.845 40.9497 126.303 41.0214 126.73 41.1631C127.158 41.3059 127.505 41.4905 127.772 41.7188C128.038 41.947 128.209 42.1912 128.281 42.4523L126.959 42.8782C126.909 42.6772 126.728 42.5093 126.417 42.3752C126.105 42.2417 125.719 42.1745 125.259 42.1745C124.881 42.1745 124.557 42.2164 124.286 42.3007C124.017 42.3851 123.881 42.5002 123.881 42.6448C123.881 42.7882 124.027 42.9265 124.319 43.062C124.611 43.1971 125.031 43.3175 125.582 43.4238C126.589 43.6251 127.325 43.8915 127.789 44.2213C128.253 44.5521 128.485 44.9699 128.485 45.4757Z" fill="white"/>
<path fill-rule="evenodd" clip-rule="evenodd" d="M138.15 47.3738H136.822V42.2096H134.878V40.98H140.104V42.2096H138.15V47.3738Z" fill="white"/>
<path fill-rule="evenodd" clip-rule="evenodd" d="M153.227 40.98V44.0831C153.227 44.5087 153.167 44.9033 153.048 45.2672C152.929 45.6308 152.767 45.9398 152.561 46.1939C152.355 46.449 152.115 46.6659 151.84 46.8457C151.565 47.0269 151.273 47.1588 150.962 47.2453C150.653 47.3309 150.332 47.3738 150 47.3738C149.669 47.3738 149.349 47.3309 149.038 47.2453C148.729 47.1588 148.435 47.0269 148.159 46.8457C147.882 46.6659 147.641 46.449 147.435 46.1939C147.229 45.9398 147.067 45.6308 146.948 45.2672C146.829 44.9033 146.769 44.5087 146.769 44.0831V40.98H148.097V44.0831C148.097 44.7173 148.27 45.2192 148.618 45.5893C148.966 45.9594 149.427 46.1448 150 46.1448C150.574 46.1448 151.035 45.9594 151.382 45.5893C151.731 45.2192 151.904 44.7173 151.904 44.0831V40.98H153.227Z" fill="white"/>
<path fill-rule="evenodd" clip-rule="evenodd" d="M162.225 42.2097H161.419V46.145H162.225C162.632 46.145 162.982 46.0972 163.272 46.001C163.561 45.905 163.787 45.7656 163.947 45.5824C164.109 45.3994 164.224 45.1928 164.295 44.9653C164.366 44.7378 164.402 44.4742 164.402 44.1774C164.402 43.8796 164.366 43.6169 164.295 43.3896C164.224 43.1613 164.109 42.9555 163.947 42.7715C163.787 42.5888 163.561 42.4493 163.272 42.3529C162.982 42.2576 162.632 42.2097 162.225 42.2097ZM162.225 40.98C163.345 40.98 164.209 41.2552 164.815 41.8051C165.422 42.3558 165.725 43.1464 165.725 44.1773C165.725 45.2082 165.422 45.9988 164.815 46.5485C164.209 47.0984 163.345 47.3738 162.225 47.3738H160.097V40.98H162.225Z" fill="white"/>
<path fill-rule="evenodd" clip-rule="evenodd" d="M172.645 47.3738H173.972V40.98H172.645V47.3738Z" fill="white"/>
<path fill-rule="evenodd" clip-rule="evenodd" d="M184.068 46.145C184.641 46.145 185.102 45.968 185.45 45.614C185.799 45.2609 185.972 44.7821 185.972 44.1774C185.972 43.5827 185.797 43.1057 185.448 42.7475C185.098 42.3889 184.638 42.2097 184.068 42.2097C183.494 42.2097 183.034 42.3889 182.686 42.7475C182.338 43.1057 182.164 43.5827 182.164 44.1774C182.164 44.7821 182.337 45.2609 182.683 45.614C183.03 45.968 183.491 46.145 184.068 46.145ZM184.068 40.98C184.399 40.98 184.72 41.02 185.03 41.0988C185.34 41.1787 185.633 41.3029 185.91 41.4737C186.187 41.6438 186.428 41.8514 186.633 42.098C186.839 42.3445 187.002 42.6449 187.121 43.0025C187.24 43.3598 187.3 43.7511 187.3 44.1773C187.3 44.6027 187.24 44.9945 187.121 45.3513C187.002 45.7087 186.839 46.0099 186.633 46.2558C186.428 46.5024 186.187 46.711 185.91 46.8807C185.633 47.0507 185.34 47.1757 185.03 47.2552C184.72 47.3343 184.399 47.3738 184.068 47.3738C183.733 47.3738 183.411 47.3343 183.101 47.2552C182.791 47.1757 182.499 47.0507 182.224 46.8807C181.948 46.711 181.709 46.5024 181.505 46.2558C181.301 46.0099 181.139 45.7087 181.021 45.3513C180.901 44.9945 180.842 44.6027 180.842 44.1773C180.842 43.7545 180.901 43.3653 181.021 43.0103C181.139 42.6547 181.301 42.3541 181.505 42.1085C181.709 41.8613 181.948 41.6521 182.224 41.4807C182.499 41.3096 182.791 41.1829 183.101 41.1014C183.411 41.0209 183.733 40.98 184.068 40.98Z" fill="white"/>
<path fill-rule="evenodd" clip-rule="evenodd" d="M200.041 45.4757C200.041 46.0338 199.764 46.4902 199.211 46.8434C198.657 47.1974 197.903 47.3737 196.949 47.3737C196.557 47.3737 196.179 47.3272 195.813 47.2332C195.446 47.1384 195.136 47.0176 194.881 46.8708C194.626 46.7234 194.414 46.5647 194.247 46.392C194.079 46.2206 193.974 46.0535 193.931 45.8919L195.258 45.4559C195.291 45.6013 195.489 45.7521 195.853 45.9094C196.216 46.0662 196.614 46.1447 197.048 46.1447C197.495 46.1447 197.886 46.0817 198.219 45.9567C198.552 45.8308 198.719 45.6708 198.719 45.4757C198.719 45.2971 198.595 45.1461 198.348 45.0219C198.101 44.8976 197.647 44.7754 196.989 44.6532C196.597 44.5829 196.234 44.4903 195.897 44.3729C195.56 44.2557 195.257 44.1168 194.987 43.9566C194.717 43.7967 194.505 43.6056 194.348 43.3837C194.192 43.1633 194.115 42.9265 194.115 42.675C194.115 42.2095 194.378 41.805 194.902 41.4637C195.428 41.121 196.099 40.9497 196.914 40.9497C197.401 40.9497 197.859 41.0214 198.286 41.1631C198.714 41.3059 199.061 41.4905 199.327 41.7188C199.594 41.947 199.764 42.1912 199.837 42.4523L198.515 42.8782C198.465 42.6772 198.284 42.5093 197.973 42.3752C197.661 42.2417 197.275 42.1745 196.814 42.1745C196.437 42.1745 196.113 42.2164 195.843 42.3007C195.572 42.3851 195.437 42.5002 195.437 42.6448C195.437 42.7882 195.584 42.9265 195.875 43.062C196.167 43.1971 196.587 43.3175 197.138 43.4238C198.145 43.6251 198.881 43.8915 199.345 44.2213C199.808 44.5521 200.041 44.9699 200.041 45.4757Z" fill="white"/>
<path fill-rule="evenodd" clip-rule="evenodd" d="M89.25 44.6082H120.149V43.7158H89.25V44.6082Z" fill="white"/>
<path fill-rule="evenodd" clip-rule="evenodd" d="M202.267 44.6082H233.166V43.7158H202.267V44.6082Z" fill="white"/>
</svg>
