<svg width="311" height="88" viewBox="0 0 311 88" fill="none" xmlns="http://www.w3.org/2000/svg">
<rect width="88" height="88" rx="33" fill="white"/>
<path fill-rule="evenodd" clip-rule="evenodd" d="M20 55L27.9281 41L33 50.0472L30.2861 55H20Z" fill="black"/>
<path fill-rule="evenodd" clip-rule="evenodd" d="M34.8177 26L30 35.6117L44.3841 65L49 55.1115L34.8177 26Z" fill="black"/>
<path fill-rule="evenodd" clip-rule="evenodd" d="M47 40.8116L54.4257 26L69 55H59.2375L54.2873 45.2411L51.8813 50.2938L47 40.8116Z" fill="black"/>
<path fill-rule="evenodd" clip-rule="evenodd" d="M126.765 37.7332L126.372 37.0048L123.119 31.0942V41.7425H119.243V23H122.783L128.426 33.258L134.037 23H137.622V41.7425H133.743V31.036L130.465 37.0048L130.072 37.7332H126.765Z" fill="white"/>
<path fill-rule="evenodd" clip-rule="evenodd" d="M172.738 38.1388C174.417 38.1388 175.768 37.622 176.788 36.5852C177.809 35.5482 178.318 34.1436 178.318 32.3713C178.318 30.6287 177.805 29.2301 176.781 28.1796C175.756 27.1297 174.407 26.6027 172.738 26.6027C171.055 26.6027 169.704 27.1297 168.685 28.1796C167.664 29.2301 167.154 30.6287 167.154 32.3713C167.154 34.1436 167.661 35.5482 168.677 36.5852C169.692 37.622 171.047 38.1388 172.738 38.1388ZM172.738 23C173.708 23 174.648 23.1157 175.555 23.3482C176.465 23.5804 177.323 23.9474 178.137 24.4454C178.947 24.9447 179.653 25.5549 180.256 26.277C180.86 26.9976 181.335 27.8816 181.684 28.9267C182.034 29.9732 182.209 31.1213 182.209 32.3713C182.209 33.6212 182.034 34.7689 181.684 35.8148C181.335 36.8617 180.86 37.7455 180.256 38.4674C179.653 39.1882 178.947 39.7989 178.137 40.2977C177.323 40.7952 176.465 41.164 175.555 41.3952C174.648 41.6274 173.708 41.7425 172.738 41.7425C171.754 41.7425 170.811 41.6274 169.902 41.3952C168.994 41.164 168.134 40.7952 167.328 40.2977C166.522 39.7989 165.821 39.1882 165.223 38.4674C164.626 37.7455 164.151 36.8617 163.802 35.8148C163.452 34.7689 163.278 33.6212 163.278 32.3713C163.278 31.1323 163.452 29.9922 163.802 28.9509C164.151 27.9098 164.626 27.0279 165.223 26.3058C165.821 25.5842 166.522 24.9715 167.328 24.4687C168.134 23.964 168.994 23.5944 169.902 23.3565C170.811 23.1197 171.754 23 172.738 23Z" fill="white"/>
<path fill-rule="evenodd" clip-rule="evenodd" d="M224.67 41.7425H219.978L214.397 35.1315L211.742 38.2856V41.7425H207.866V23H211.742V32.8803L220.196 23H224.729L216.786 32.342L224.67 41.7425Z" fill="white"/>
<path fill-rule="evenodd" clip-rule="evenodd" d="M267.436 41.7425H262.744L257.162 35.1315L254.51 38.2856V41.7425H250.633V23H254.51V32.8803L262.961 23H267.496L259.551 32.342L267.436 41.7425Z" fill="white"/>
<path fill-rule="evenodd" clip-rule="evenodd" d="M304.168 23H299.812L293.092 41.7425H296.97L298.295 38.0534H298.296L299.59 34.4499H299.578L301.998 27.7525L307.011 41.7425H310.888L304.168 23Z" fill="white"/>
<path fill-rule="evenodd" clip-rule="evenodd" d="M171.314 60.3007C171.314 61.0449 170.945 61.6535 170.207 62.1244C169.469 62.5963 168.463 62.8315 167.191 62.8315C166.669 62.8315 166.164 62.7695 165.676 62.6441C165.187 62.5177 164.773 62.3566 164.433 62.1609C164.092 61.9644 163.811 61.7528 163.588 61.5225C163.365 61.294 163.224 61.0712 163.167 60.8556L164.936 60.2744C164.981 60.4683 165.245 60.6693 165.729 60.879C166.213 61.0881 166.744 61.1928 167.323 61.1928C167.92 61.1928 168.44 61.1088 168.884 60.9421C169.329 60.7743 169.55 60.5609 169.55 60.3007C169.55 60.0626 169.386 59.8613 169.057 59.6956C168.727 59.53 168.123 59.3671 167.243 59.2041C166.722 59.1104 166.237 58.9869 165.789 58.8304C165.34 58.6742 164.936 58.4889 164.575 58.2752C164.215 58.0621 163.931 57.8073 163.724 57.5115C163.516 57.2175 163.412 56.9018 163.412 56.5665C163.412 55.9458 163.762 55.4065 164.463 54.9515C165.163 54.4946 166.057 54.2661 167.144 54.2661C167.794 54.2661 168.404 54.3617 168.974 54.5507C169.544 54.741 170.006 54.9872 170.362 55.2916C170.718 55.5958 170.945 55.9214 171.042 56.2696L169.279 56.8374C169.212 56.5695 168.971 56.3456 168.556 56.1668C168.141 55.9888 167.626 55.8991 167.012 55.8991C166.507 55.8991 166.076 55.955 165.715 56.0675C165.355 56.1799 165.175 56.3335 165.175 56.5262C165.175 56.7174 165.37 56.9018 165.759 57.0825C166.148 57.2626 166.709 57.4232 167.442 57.5649C168.786 57.8334 169.767 58.1885 170.385 58.6283C171.004 59.0693 171.314 59.6264 171.314 60.3007Z" fill="white"/>
<path fill-rule="evenodd" clip-rule="evenodd" d="M184.199 62.8317H182.429V55.9461H179.837V54.3066H186.804V55.9461H184.199V62.8317Z" fill="white"/>
<path fill-rule="evenodd" clip-rule="evenodd" d="M204.303 54.3066V58.4441C204.303 59.0116 204.223 59.5378 204.064 60.0229C203.905 60.5077 203.689 60.9198 203.415 61.2586C203.14 61.5987 202.82 61.8878 202.453 62.1276C202.086 62.3692 201.697 62.545 201.283 62.6605C200.87 62.7746 200.443 62.8317 200.001 62.8317C199.559 62.8317 199.132 62.7746 198.718 62.6605C198.305 62.545 197.914 62.3692 197.545 62.1276C197.176 61.8878 196.854 61.5987 196.58 61.2586C196.306 60.9198 196.09 60.5077 195.93 60.0229C195.771 59.5378 195.692 59.0116 195.692 58.4441V54.3066H197.462V58.4441C197.462 59.2897 197.694 59.959 198.158 60.4524C198.621 60.9458 199.236 61.1931 200.001 61.1931C200.765 61.1931 201.379 60.9458 201.843 60.4524C202.308 59.959 202.539 59.2897 202.539 58.4441V54.3066H204.303Z" fill="white"/>
<path fill-rule="evenodd" clip-rule="evenodd" d="M216.3 55.9461H215.226V61.1931H216.3C216.843 61.1931 217.309 61.1295 217.696 61.0011C218.082 60.8731 218.382 60.6873 218.596 60.443C218.811 60.199 218.965 59.9236 219.06 59.6202C219.155 59.3168 219.203 58.9654 219.203 58.5697C219.203 58.1727 219.155 57.8223 219.06 57.5193C218.965 57.2148 218.811 56.9405 218.596 56.6951C218.382 56.4516 218.082 56.2656 217.696 56.137C217.309 56.01 216.843 55.9461 216.3 55.9461ZM216.3 54.3066C217.794 54.3066 218.945 54.6736 219.753 55.4068C220.562 56.141 220.967 57.1952 220.967 58.5697C220.967 59.9442 220.562 60.9985 219.753 61.7313C218.945 62.4645 217.794 62.8317 216.3 62.8317H213.463V54.3066H216.3Z" fill="white"/>
<path fill-rule="evenodd" clip-rule="evenodd" d="M230.193 62.8317H231.962V54.3066H230.193V62.8317Z" fill="white"/>
<path fill-rule="evenodd" clip-rule="evenodd" d="M245.424 61.1931C246.189 61.1931 246.803 60.9571 247.267 60.4852C247.732 60.0143 247.963 59.3759 247.963 58.5697C247.963 57.7767 247.73 57.1407 247.264 56.6632C246.797 56.185 246.185 55.9461 245.424 55.9461C244.66 55.9461 244.045 56.185 243.581 56.6632C243.118 57.1407 242.886 57.7767 242.886 58.5697C242.886 59.3759 243.117 60.0143 243.578 60.4852C244.04 60.9571 244.655 61.1931 245.424 61.1931ZM245.424 54.3066C245.866 54.3066 246.294 54.3601 246.707 54.465C247.12 54.5716 247.511 54.7372 247.88 54.9649C248.249 55.1917 248.57 55.4685 248.845 55.7974C249.119 56.126 249.336 56.5265 249.495 57.0033C249.653 57.4798 249.733 58.0014 249.733 58.5697C249.733 59.137 249.653 59.6594 249.495 60.1351C249.336 60.6116 249.119 61.0132 248.845 61.341C248.57 61.6699 248.249 61.948 247.88 62.1743C247.511 62.4009 247.12 62.5676 246.707 62.6736C246.294 62.7791 245.866 62.8317 245.424 62.8317C244.978 62.8317 244.548 62.7791 244.136 62.6736C243.721 62.5676 243.332 62.4009 242.965 62.1743C242.598 61.948 242.279 61.6699 242.007 61.341C241.735 61.0132 241.52 60.6116 241.361 60.1351C241.202 59.6594 241.123 59.137 241.123 58.5697C241.123 58.006 241.202 57.487 241.361 57.0138C241.52 56.5397 241.735 56.1389 242.007 55.8113C242.279 55.4817 242.598 55.2027 242.965 54.9743C243.332 54.7461 243.721 54.5772 244.136 54.4685C244.548 54.3611 244.978 54.3066 245.424 54.3066Z" fill="white"/>
<path fill-rule="evenodd" clip-rule="evenodd" d="M266.721 60.3007C266.721 61.0449 266.352 61.6535 265.614 62.1244C264.876 62.5963 263.871 62.8315 262.598 62.8315C262.076 62.8315 261.571 62.7695 261.083 62.6441C260.595 62.5177 260.181 62.3566 259.84 62.1609C259.501 61.9644 259.219 61.7528 258.995 61.5225C258.772 61.294 258.632 61.0712 258.575 60.8556L260.344 60.2744C260.388 60.4683 260.652 60.6693 261.137 60.879C261.62 61.0881 262.152 61.1928 262.73 61.1928C263.327 61.1928 263.847 61.1088 264.291 60.9421C264.736 60.7743 264.958 60.5609 264.958 60.3007C264.958 60.0626 264.793 59.8613 264.464 59.6956C264.135 59.53 263.53 59.3671 262.652 59.2041C262.129 59.1104 261.645 58.9869 261.196 58.8304C260.747 58.6742 260.343 58.4889 259.982 58.2752C259.623 58.0621 259.339 57.8073 259.131 57.5115C258.923 57.2175 258.82 56.9018 258.82 56.5665C258.82 55.9458 259.17 55.4065 259.87 54.9515C260.57 54.4946 261.465 54.2661 262.552 54.2661C263.201 54.2661 263.811 54.3617 264.382 54.5507C264.952 54.741 265.414 54.9872 265.77 55.2916C266.126 55.5958 266.352 55.9214 266.45 56.2696L264.686 56.8374C264.62 56.5695 264.379 56.3456 263.964 56.1668C263.547 55.9888 263.033 55.8991 262.419 55.8991C261.915 55.8991 261.483 55.955 261.123 56.0675C260.763 56.1799 260.582 56.3335 260.582 56.5262C260.582 56.7174 260.778 56.9018 261.167 57.0825C261.555 57.2626 262.116 57.4232 262.85 57.5649C264.192 57.8334 265.174 58.1885 265.793 58.6283C266.411 59.0693 266.721 59.6264 266.721 60.3007Z" fill="white"/>
<path fill-rule="evenodd" clip-rule="evenodd" d="M119 59.1444H160.198V57.9546H119V59.1444Z" fill="white"/>
<path fill-rule="evenodd" clip-rule="evenodd" d="M269.689 59.1444H310.888V57.9546H269.689V59.1444Z" fill="white"/>
</svg>
