<svg width="212" height="60" viewBox="0 0 212 60" fill="none" xmlns="http://www.w3.org/2000/svg">
<rect width="60.0088" height="60" rx="22.4761" fill="white"/>
<path fill-rule="evenodd" clip-rule="evenodd" d="M13.6383 37.5001L19.0446 27.9546L22.5032 34.1231L20.6526 37.5001H13.6383Z" fill="black"/>
<path fill-rule="evenodd" clip-rule="evenodd" d="M23.7428 17.7271L20.4575 24.2805L30.2663 44.318L33.414 37.5758L23.7428 17.7271Z" fill="black"/>
<path fill-rule="evenodd" clip-rule="evenodd" d="M32.0499 27.8259L37.1136 17.7271L47.0521 37.4998H40.3948L37.0192 30.846L35.3785 34.291L32.0499 27.8259Z" fill="black"/>
<path fill-rule="evenodd" clip-rule="evenodd" d="M86.4427 25.727L86.1748 25.2304L83.9565 21.2004V28.4606H81.3137V15.6816H83.7279L87.5755 22.6757L91.4018 15.6816H93.8466V28.4606H91.2016V21.1607L88.9663 25.2304L88.6984 25.727H86.4427Z" fill="white"/>
<path fill-rule="evenodd" clip-rule="evenodd" d="M117.793 26.0037C118.938 26.0037 119.859 25.6514 120.555 24.9445C121.251 24.2374 121.598 23.2797 121.598 22.0713C121.598 20.8832 121.249 19.9296 120.55 19.2134C119.851 18.4975 118.932 18.1382 117.793 18.1382C116.646 18.1382 115.724 18.4975 115.029 19.2134C114.333 19.9296 113.985 20.8832 113.985 22.0713C113.985 23.2797 114.331 24.2374 115.024 24.9445C115.716 25.6514 116.64 26.0037 117.793 26.0037ZM117.793 15.6816C118.455 15.6816 119.096 15.7605 119.714 15.919C120.334 16.0774 120.92 16.3276 121.475 16.6671C122.027 17.0076 122.509 17.4236 122.92 17.916C123.331 18.4073 123.656 19.01 123.894 19.7226C124.132 20.4361 124.252 21.2189 124.252 22.0711C124.252 22.9234 124.132 23.7059 123.894 24.419C123.656 25.1328 123.331 25.7354 122.92 26.2276C122.509 26.719 122.027 27.1354 121.475 27.4755C120.92 27.8147 120.334 28.0662 119.714 28.2238C119.096 28.3821 118.455 28.4606 117.793 28.4606C117.122 28.4606 116.479 28.3821 115.859 28.2238C115.24 28.0662 114.654 27.8147 114.104 27.4755C113.554 27.1354 113.076 26.719 112.668 26.2276C112.262 25.7354 111.938 25.1328 111.7 24.419C111.461 23.7059 111.342 22.9234 111.342 22.0711C111.342 21.2264 111.461 20.4491 111.7 19.739C111.938 19.0292 112.262 18.4279 112.668 17.9356C113.076 17.4436 113.554 17.0259 114.104 16.683C114.654 16.3389 115.24 16.0869 115.859 15.9247C116.479 15.7633 117.122 15.6816 117.793 15.6816Z" fill="white"/>
<path fill-rule="evenodd" clip-rule="evenodd" d="M153.206 28.4606H150.007L146.201 23.9531L144.391 26.1037V28.4606H141.748V15.6816H144.391V22.4182L150.155 15.6816H153.247L147.83 22.0512L153.206 28.4606Z" fill="white"/>
<path fill-rule="evenodd" clip-rule="evenodd" d="M182.37 28.4606H179.17L175.363 23.9531L173.555 26.1037V28.4606H170.911V15.6816H173.555V22.4182L179.318 15.6816H182.41L176.993 22.0512L182.37 28.4606Z" fill="white"/>
<path fill-rule="evenodd" clip-rule="evenodd" d="M207.418 15.6816H204.447L199.865 28.4606H202.509L203.413 25.9453H203.414L204.296 23.4884H204.288L205.938 18.922L209.356 28.4606H212L207.418 15.6816Z" fill="white"/>
<path fill-rule="evenodd" clip-rule="evenodd" d="M116.822 41.1145C116.822 41.6219 116.57 42.0368 116.067 42.3579C115.564 42.6797 114.878 42.84 114.011 42.84C113.655 42.84 113.31 42.7977 112.977 42.7123C112.644 42.626 112.362 42.5162 112.13 42.3828C111.898 42.2488 111.706 42.1046 111.553 41.9475C111.401 41.7918 111.306 41.6398 111.266 41.4929L112.473 41.0966C112.504 41.2287 112.683 41.3658 113.014 41.5088C113.343 41.6514 113.706 41.7227 114.101 41.7227C114.507 41.7227 114.862 41.6655 115.165 41.5518C115.468 41.4374 115.62 41.2919 115.62 41.1145C115.62 40.9522 115.507 40.8149 115.283 40.7019C115.058 40.589 114.646 40.4779 114.046 40.3668C113.691 40.3029 113.36 40.2187 113.054 40.112C112.748 40.0055 112.473 39.8792 112.227 39.7335C111.981 39.5882 111.788 39.4145 111.646 39.2127C111.504 39.0123 111.434 38.7971 111.434 38.5685C111.434 38.1453 111.672 37.7775 112.15 37.4673C112.628 37.1558 113.237 37 113.978 37C114.422 37 114.838 37.0652 115.226 37.194C115.615 37.3238 115.93 37.4916 116.173 37.6992C116.416 37.9066 116.57 38.1286 116.636 38.366L115.434 38.7531C115.389 38.5705 115.225 38.4178 114.941 38.2959C114.658 38.1746 114.307 38.1134 113.888 38.1134C113.545 38.1134 113.25 38.1515 113.004 38.2282C112.759 38.3049 112.636 38.4096 112.636 38.541C112.636 38.6713 112.769 38.7971 113.034 38.9203C113.299 39.0431 113.682 39.1525 114.182 39.2492C115.098 39.4322 115.767 39.6744 116.189 39.9742C116.611 40.2749 116.822 40.6547 116.822 41.1145Z" fill="white"/>
<path fill-rule="evenodd" clip-rule="evenodd" d="M125.609 42.8394H124.402V38.1447H122.634V37.0269H127.385V38.1447H125.609V42.8394Z" fill="white"/>
<path fill-rule="evenodd" clip-rule="evenodd" d="M139.318 37.0269V39.8478C139.318 40.2348 139.263 40.5935 139.155 40.9243C139.047 41.2549 138.899 41.5358 138.712 41.7668C138.525 41.9987 138.307 42.1959 138.056 42.3593C137.806 42.524 137.541 42.6439 137.259 42.7226C136.977 42.8004 136.686 42.8394 136.384 42.8394C136.083 42.8394 135.791 42.8004 135.509 42.7226C135.228 42.6439 134.961 42.524 134.709 42.3593C134.458 42.1959 134.238 41.9987 134.051 41.7668C133.864 41.5358 133.717 41.2549 133.608 40.9243C133.5 40.5935 133.446 40.2348 133.446 39.8478V37.0269H134.653V39.8478C134.653 40.4244 134.811 40.8807 135.127 41.2172C135.443 41.5536 135.862 41.7222 136.384 41.7222C136.905 41.7222 137.324 41.5536 137.641 41.2172C137.957 40.8807 138.115 40.4244 138.115 39.8478V37.0269H139.318Z" fill="white"/>
<path fill-rule="evenodd" clip-rule="evenodd" d="M147.499 38.1445H146.766V41.722H147.499C147.869 41.722 148.187 41.6786 148.45 41.5911C148.714 41.5038 148.919 41.3772 149.065 41.2106C149.211 41.0442 149.316 40.8564 149.381 40.6496C149.446 40.4428 149.478 40.2032 149.478 39.9334C149.478 39.6627 149.446 39.4238 149.381 39.2171C149.316 39.0096 149.211 38.8225 149.065 38.6552C148.919 38.4892 148.714 38.3623 148.45 38.2747C148.187 38.1881 147.869 38.1445 147.499 38.1445ZM147.499 37.0269C148.517 37.0269 149.302 37.2771 149.854 37.7769C150.405 38.2776 150.681 38.9963 150.681 39.9335C150.681 40.8707 150.405 41.5895 149.854 42.0891C149.302 42.589 148.517 42.8394 147.499 42.8394H145.564V37.0269H147.499Z" fill="white"/>
<path fill-rule="evenodd" clip-rule="evenodd" d="M156.972 42.8394H158.179V37.0269H156.972V42.8394Z" fill="white"/>
<path fill-rule="evenodd" clip-rule="evenodd" d="M167.359 41.722C167.88 41.722 168.299 41.5611 168.616 41.2393C168.933 40.9183 169.09 40.483 169.09 39.9334C169.09 39.3927 168.931 38.9591 168.614 38.6334C168.295 38.3074 167.878 38.1445 167.359 38.1445C166.838 38.1445 166.419 38.3074 166.102 38.6334C165.786 38.9591 165.628 39.3927 165.628 39.9334C165.628 40.483 165.785 40.9183 166.1 41.2393C166.415 41.5611 166.834 41.722 167.359 41.722ZM167.359 37.0269C167.66 37.0269 167.952 37.0633 168.234 37.1348C168.516 37.2075 168.782 37.3204 169.034 37.4757C169.285 37.6303 169.504 37.819 169.691 38.0433C169.878 38.2673 170.026 38.5404 170.135 38.8655C170.243 39.1904 170.297 39.546 170.297 39.9335C170.297 40.3203 170.243 40.6765 170.135 41.0008C170.026 41.3257 169.878 41.5995 169.691 41.823C169.504 42.0472 169.285 42.2369 169.034 42.3912C168.782 42.5456 168.516 42.6593 168.234 42.7316C167.952 42.8035 167.66 42.8394 167.359 42.8394C167.055 42.8394 166.761 42.8035 166.48 42.7316C166.198 42.6593 165.932 42.5456 165.682 42.3912C165.432 42.2369 165.214 42.0472 165.028 41.823C164.843 41.5995 164.696 41.3257 164.588 41.0008C164.48 40.6765 164.426 40.3203 164.426 39.9335C164.426 39.5491 164.48 39.1953 164.588 38.8726C164.696 38.5494 164.843 38.2761 165.028 38.0528C165.214 37.828 165.432 37.6378 165.682 37.4821C165.932 37.3265 166.198 37.2114 166.48 37.1372C166.761 37.064 167.055 37.0269 167.359 37.0269Z" fill="white"/>
<path fill-rule="evenodd" clip-rule="evenodd" d="M181.882 41.1145C181.882 41.6219 181.63 42.0368 181.127 42.3579C180.623 42.6797 179.938 42.84 179.07 42.84C178.714 42.84 178.37 42.7977 178.037 42.7123C177.704 42.626 177.422 42.5162 177.19 42.3828C176.958 42.2488 176.766 42.1046 176.614 41.9475C176.461 41.7918 176.366 41.6398 176.327 41.4929L177.533 41.0966C177.563 41.2287 177.743 41.3658 178.074 41.5088C178.404 41.6514 178.766 41.7227 179.161 41.7227C179.567 41.7227 179.922 41.6655 180.225 41.5518C180.528 41.4374 180.68 41.2919 180.68 41.1145C180.68 40.9522 180.567 40.8149 180.343 40.7019C180.118 40.589 179.706 40.4779 179.107 40.3668C178.751 40.3029 178.42 40.2187 178.114 40.112C177.808 40.0055 177.532 39.8792 177.287 39.7335C177.041 39.5882 176.848 39.4145 176.706 39.2127C176.564 39.0123 176.494 38.7971 176.494 38.5685C176.494 38.1453 176.733 37.7775 177.21 37.4673C177.687 37.1558 178.297 37 179.039 37C179.481 37 179.898 37.0652 180.287 37.194C180.675 37.3238 180.99 37.4916 181.233 37.6992C181.476 37.9066 181.63 38.1286 181.697 38.366L180.494 38.7531C180.449 38.5705 180.285 38.4178 180.001 38.2959C179.718 38.1746 179.367 38.1134 178.948 38.1134C178.605 38.1134 178.31 38.1515 178.065 38.2282C177.819 38.3049 177.696 38.4096 177.696 38.541C177.696 38.6713 177.829 38.7971 178.094 38.9203C178.359 39.0431 178.742 39.1525 179.242 39.2492C180.157 39.4322 180.827 39.6744 181.249 39.9742C181.67 40.2749 181.882 40.6547 181.882 41.1145Z" fill="white"/>
<path fill-rule="evenodd" clip-rule="evenodd" d="M81.1481 40.3256H109.242V39.5144H81.1481V40.3256Z" fill="white"/>
<path fill-rule="evenodd" clip-rule="evenodd" d="M183.906 40.3254H212V39.5142H183.906V40.3254Z" fill="white"/>
</svg>
