<svg width="72" height="84" viewBox="0 0 72 84" fill="none" xmlns="http://www.w3.org/2000/svg">
<path d="M26 55.5066C26 54.6782 26.6716 54.0066 27.5 54.0066H45.5C46.3284 54.0066 47 54.6782 47 55.5066V57.5003C47 58.3287 46.3284 59.0003 45.5 59.0003H27.5C26.6716 59.0003 26 58.3287 26 57.5003V55.5066Z" stroke="black" stroke-width="2"/>
<path d="M41.6572 59.0488L41.6572 80.5488C41.6572 81.3773 40.9857 82.0488 40.1572 82.0488H34.1572C33.3288 82.0488 32.6572 81.3773 32.6572 80.5488V59.0488H41.6572Z" stroke="black" stroke-width="2"/>
<rect x="2" y="44.0002" width="9" height="9" rx="4.5" stroke="black" stroke-width="2"/>
<rect x="62" y="44.0002" width="9" height="9" rx="4.5" stroke="black" stroke-width="2"/>
<path d="M6.69153 44.8588V35.8291C6.69153 19.3996 20.0103 6.08081 36.4398 6.08081V6.08081C52.8693 6.08081 66.1881 19.3996 66.1881 35.8291V44.8588" stroke="black" stroke-width="2"/>
<path d="M1.50659 6.08081H70.0699" stroke="black" stroke-width="2" stroke-linecap="round"/>
<rect x="32" y="1.52148" width="9" height="9" rx="4.5" fill="white" stroke="black" stroke-width="2"/>
<rect x="32" y="38.5215" width="9" height="9" rx="4.5" fill="white" stroke="black" stroke-width="2"/>
<path fill-rule="evenodd" clip-rule="evenodd" d="M22.3029 41.3069L36.5 21.8059L51.0102 41.3069L44.0197 54.0003H29.6147L22.3029 41.3069Z" stroke="black" stroke-width="2"/>
<path d="M36.5 21.8059V37.5215" stroke="black" stroke-width="2"/>
</svg>
