<svg width="131" height="102" viewBox="0 0 131 102" fill="none" xmlns="http://www.w3.org/2000/svg">
<rect x="35.0396" width="60.0766" height="59.907" rx="22.4761" fill="white"/>
<path fill-rule="evenodd" clip-rule="evenodd" d="M48.6934 37.4408L54.1058 27.9102L57.5683 34.0691L55.7155 37.4408H48.6934Z" fill="black"/>
<path fill-rule="evenodd" clip-rule="evenodd" d="M58.8093 17.6992L55.5203 24.2425L65.3401 44.2489L68.4914 37.5172L58.8093 17.6992Z" fill="black"/>
<path fill-rule="evenodd" clip-rule="evenodd" d="M67.1257 27.7824L72.1952 17.6992L82.1449 37.4413H75.4801L72.1007 30.7978L70.4581 34.2375L67.1257 27.7824Z" fill="black"/>
<path fill-rule="evenodd" clip-rule="evenodd" d="M5.3003 84.9126L5.03208 84.4167L2.81132 80.393V87.642H0.165527V74.8828H2.58244L6.43439 81.866L10.265 74.8828H12.7126V87.642H10.0646V80.3534L7.82678 84.4167L7.55856 84.9126H5.3003Z" fill="white"/>
<path fill-rule="evenodd" clip-rule="evenodd" d="M36.6861 85.1888C37.8326 85.1888 38.7547 84.837 39.4511 84.1312C40.148 83.4252 40.4958 82.469 40.4958 81.2625C40.4958 80.0762 40.1458 79.1241 39.4468 78.409C38.7468 77.6942 37.8261 77.3354 36.6861 77.3354C35.5377 77.3354 34.615 77.6942 33.9192 78.409C33.2226 79.1241 32.8743 80.0762 32.8743 81.2625C32.8743 82.469 33.2206 83.4252 33.9141 84.1312C34.6071 84.837 35.5316 85.1888 36.6861 85.1888ZM36.6862 74.8828C37.3488 74.8828 37.9904 74.9616 38.6097 75.1198C39.2306 75.2779 39.8166 75.5278 40.3724 75.8668C40.9255 76.2067 41.4072 76.6221 41.8188 77.1137C42.231 77.6042 42.5558 78.206 42.7939 78.9175C43.0325 79.6299 43.1524 80.4115 43.1524 81.2624C43.1524 82.1133 43.0325 82.8946 42.7939 83.6066C42.5558 84.3193 42.231 84.921 41.8188 85.4124C41.4072 85.9031 40.9255 86.3189 40.3724 86.6584C39.8166 86.9971 39.2306 87.2482 38.6097 87.4055C37.9904 87.5636 37.3488 87.642 36.6862 87.642C36.0149 87.642 35.3709 87.5636 34.7504 87.4055C34.1302 87.2482 33.5435 86.9971 32.9933 86.6584C32.4429 86.3189 31.9642 85.9031 31.5559 85.4124C31.1487 84.921 30.8244 84.3193 30.5861 83.6066C30.3473 82.8946 30.228 82.1133 30.228 81.2624C30.228 80.419 30.3473 79.6428 30.5861 78.9339C30.8244 78.2252 31.1487 77.6249 31.5559 77.1333C31.9642 76.642 32.4429 76.225 32.9933 75.8827C33.5435 75.5391 34.1302 75.2874 34.7504 75.1255C35.3709 74.9643 36.0149 74.8828 36.6862 74.8828Z" fill="white"/>
<path fill-rule="evenodd" clip-rule="evenodd" d="M72.1398 87.642H68.9362L65.126 83.1415L63.3141 85.2887V87.642H60.668V74.8828H63.3141V81.6089L69.0852 74.8828H72.1801L66.757 81.2425L72.1398 87.642Z" fill="white"/>
<path fill-rule="evenodd" clip-rule="evenodd" d="M101.336 87.642H98.1327L94.3218 83.1415L92.511 85.2887V87.642H89.8643V74.8828H92.511V81.6089L98.2809 74.8828H101.376L95.9528 81.2425L101.336 87.642Z" fill="white"/>
<path fill-rule="evenodd" clip-rule="evenodd" d="M126.413 74.8828H123.439L118.851 87.642H121.499L122.403 85.1306H122.404L123.287 82.6775H123.279L124.931 78.1181L128.353 87.642H131L126.413 74.8828Z" fill="white"/>
<path fill-rule="evenodd" clip-rule="evenodd" d="M35.7142 100.276C35.7142 100.783 35.4623 101.197 34.9586 101.518C34.4547 101.839 33.7682 101.999 32.8996 101.999C32.5433 101.999 32.1986 101.957 31.8653 101.871C31.5319 101.785 31.2491 101.676 31.0167 101.542C30.7842 101.409 30.5923 101.265 30.4397 101.108C30.2875 100.952 30.1915 100.801 30.1523 100.654L31.3603 100.258C31.3909 100.39 31.571 100.527 31.9016 100.67C32.2317 100.812 32.5946 100.883 32.9899 100.883C33.3971 100.883 33.7522 100.826 34.0556 100.713C34.3589 100.598 34.5104 100.453 34.5104 100.276C34.5104 100.114 34.3979 99.9769 34.1732 99.8642C33.9484 99.7514 33.5359 99.6405 32.9355 99.5296C32.5795 99.4658 32.2485 99.3817 31.9422 99.2752C31.6361 99.1688 31.3602 99.0427 31.1138 98.8972C30.8682 98.7521 30.6743 98.5787 30.5327 98.3773C30.3906 98.1772 30.3198 97.9623 30.3198 97.734C30.3198 97.3115 30.5588 96.9443 31.0372 96.6345C31.5151 96.3235 32.1257 96.168 32.8674 96.168C33.311 96.168 33.7276 96.233 34.1168 96.3617C34.506 96.4913 34.8216 96.6588 35.0647 96.8661C35.3073 97.0732 35.4623 97.2948 35.5285 97.5319L34.3249 97.9184C34.2797 97.736 34.115 97.5836 33.8315 97.4619C33.548 97.3407 33.1963 97.2797 32.7774 97.2797C32.433 97.2797 32.1382 97.3177 31.8922 97.3943C31.6466 97.4708 31.5236 97.5754 31.5236 97.7066C31.5236 97.8367 31.6563 97.9623 31.922 98.0852C32.1876 98.2079 32.5704 98.3172 33.0713 98.4137C33.9883 98.5964 34.6582 98.8382 35.0805 99.1375C35.5029 99.4378 35.7142 99.817 35.7142 100.276Z" fill="white"/>
<path fill-rule="evenodd" clip-rule="evenodd" d="M44.5107 101.999H43.3023V97.3114H41.5327V96.1953H46.2894V97.3114H44.5107V101.999Z" fill="white"/>
<path fill-rule="evenodd" clip-rule="evenodd" d="M58.2357 96.1953V99.0119C58.2357 99.3983 58.1811 99.7565 58.0726 100.087C57.964 100.417 57.8162 100.697 57.629 100.928C57.4419 101.159 57.2231 101.356 56.9727 101.52C56.7223 101.684 56.4563 101.804 56.174 101.882C55.8921 101.96 55.6004 101.999 55.2983 101.999C54.9967 101.999 54.7051 101.96 54.4225 101.882C54.1407 101.804 53.8738 101.684 53.6217 101.52C53.3701 101.356 53.1504 101.159 52.9632 100.928C52.7759 100.697 52.6285 100.417 52.5196 100.087C52.4112 99.7565 52.3569 99.3983 52.3569 99.0119V96.1953H53.5653V99.0119C53.5653 99.5876 53.7236 100.043 54.0403 100.379C54.3567 100.715 54.7762 100.883 55.2983 100.883C55.8202 100.883 56.2396 100.715 56.5563 100.379C56.8733 100.043 57.0314 99.5876 57.0314 99.0119V96.1953H58.2357Z" fill="white"/>
<path fill-rule="evenodd" clip-rule="evenodd" d="M66.4258 97.311H65.6921V100.883H66.4258C66.7961 100.883 67.1143 100.84 67.3783 100.752C67.6419 100.665 67.8471 100.539 67.9933 100.372C68.1401 100.206 68.2453 100.019 68.31 99.8122C68.3747 99.6057 68.4076 99.3665 68.4076 99.0971C68.4076 98.8268 68.3747 98.5883 68.31 98.382C68.2453 98.1747 68.1401 97.988 67.9933 97.8209C67.8471 97.6552 67.6419 97.5285 67.3783 97.441C67.1143 97.3545 66.7961 97.311 66.4258 97.311ZM66.4259 96.1953C67.4452 96.1953 68.2311 96.4451 68.7832 96.9442C69.3353 97.4441 69.6116 98.1618 69.6116 99.0975C69.6116 100.033 69.3353 100.751 68.7832 101.25C68.2311 101.749 67.4452 101.999 66.4259 101.999H64.4888V96.1953H66.4259Z" fill="white"/>
<path fill-rule="evenodd" clip-rule="evenodd" d="M75.9102 101.999H77.1182V96.1953H75.9102V101.999Z" fill="white"/>
<path fill-rule="evenodd" clip-rule="evenodd" d="M86.3084 100.883C86.8305 100.883 87.2496 100.722 87.5666 100.401C87.8839 100.08 88.0414 99.6459 88.0414 99.0971C88.0414 98.5572 87.8826 98.1243 87.5645 97.7992C87.2458 97.4737 86.8275 97.311 86.3084 97.311C85.7864 97.311 85.3671 97.4737 85.0504 97.7992C84.7338 98.1243 84.5753 98.5572 84.5753 99.0971C84.5753 99.6459 84.7331 100.08 85.048 100.401C85.3634 100.722 85.7833 100.883 86.3084 100.883ZM86.3083 96.1953C86.6098 96.1953 86.9022 96.2317 87.1843 96.3031C87.4663 96.3757 87.733 96.4885 87.9849 96.6434C88.2369 96.7979 88.4562 96.9863 88.6434 97.2101C88.8307 97.4338 88.9789 97.7065 89.0872 98.0311C89.1954 98.3555 89.25 98.7106 89.25 99.0975C89.25 99.4836 89.1954 99.8393 89.0872 100.163C88.9789 100.487 88.8307 100.761 88.6434 100.984C88.4562 101.208 88.2369 101.397 87.9849 101.551C87.733 101.706 87.4663 101.819 87.1843 101.891C86.9022 101.963 86.6098 101.999 86.3083 101.999C86.0036 101.999 85.7101 101.963 85.4286 101.891C85.1459 101.819 84.8798 101.706 84.6296 101.551C84.3789 101.397 84.161 101.208 83.9752 100.984C83.7899 100.761 83.6428 100.487 83.5345 100.163C83.4257 99.8393 83.3718 99.4836 83.3718 99.0975C83.3718 98.7137 83.4257 98.3604 83.5345 98.0382C83.6428 97.7155 83.7899 97.4426 83.9752 97.2197C84.161 96.9952 84.3789 96.8053 84.6296 96.6498C84.8798 96.4945 85.1459 96.3795 85.4286 96.3055C85.7101 96.2324 86.0036 96.1953 86.3083 96.1953Z" fill="white"/>
<path fill-rule="evenodd" clip-rule="evenodd" d="M100.848 100.276C100.848 100.783 100.596 101.197 100.092 101.518C99.5877 101.839 98.9017 101.999 98.033 101.999C97.6764 101.999 97.3319 101.957 96.9988 101.871C96.6653 101.785 96.3825 101.676 96.1504 101.542C95.9184 101.409 95.7261 101.265 95.5735 101.108C95.4209 100.952 95.3253 100.801 95.2861 100.654L96.4939 100.258C96.5241 100.39 96.7044 100.527 97.0352 100.67C97.3655 100.812 97.7282 100.883 98.1233 100.883C98.5305 100.883 98.8857 100.826 99.189 100.713C99.4922 100.598 99.644 100.453 99.644 100.276C99.644 100.114 99.5313 99.9769 99.3067 99.8642C99.0818 99.7514 98.6689 99.6405 98.0694 99.5296C97.713 99.4658 97.3821 99.3817 97.0758 99.2752C96.7692 99.1688 96.4934 99.0427 96.2472 98.8972C96.0016 98.7521 95.808 98.5787 95.6658 98.3773C95.5238 98.1772 95.4534 97.9623 95.4534 97.734C95.4534 97.3115 95.6926 96.9443 96.1702 96.6345C96.6486 96.3235 97.2591 96.168 98.0014 96.168C98.4445 96.168 98.8612 96.233 99.2506 96.3617C99.6398 96.4913 99.9552 96.6588 100.198 96.8661C100.441 97.0732 100.596 97.2948 100.662 97.5319L99.4581 97.9184C99.4133 97.736 99.2486 97.5836 98.9651 97.4619C98.6811 97.3407 98.3297 97.2797 97.9106 97.2797C97.5666 97.2797 97.2718 97.3177 97.0262 97.3943C96.78 97.4708 96.6568 97.5754 96.6568 97.7066C96.6568 97.8367 96.7905 97.9623 97.0558 98.0852C97.321 98.2079 97.704 98.3172 98.2047 98.4137C99.1214 98.5964 99.7914 98.8382 100.214 99.1375C100.636 99.4378 100.848 99.817 100.848 100.276Z" fill="white"/>
<path fill-rule="evenodd" clip-rule="evenodd" d="M0 99.4877H28.1255V98.6777H0V99.4877Z" fill="white"/>
<path fill-rule="evenodd" clip-rule="evenodd" d="M102.874 99.4877H131V98.6777H102.874V99.4877Z" fill="white"/>
</svg>
