<svg width="277" height="73" viewBox="0 0 277 73" fill="none" xmlns="http://www.w3.org/2000/svg">
<rect width="73" height="73" rx="24" fill="white"/>
<path fill-rule="evenodd" clip-rule="evenodd" d="M15.0127 46.5166L22.1531 33.9121L26.7211 42.0575L24.2768 46.5166H15.0127Z" fill="#5D5FEF"/>
<path fill-rule="evenodd" clip-rule="evenodd" d="M28.3581 20.4082L24.019 29.0618L36.974 55.5207L41.1313 46.6179L28.3581 20.4082Z" fill="#5D5FEF"/>
<path fill-rule="evenodd" clip-rule="evenodd" d="M39.3301 33.7434L46.018 20.4082L59.1443 46.5175H50.3517L45.8934 37.7314L43.7264 42.2804L39.3301 33.7434Z" fill="#5D5FEF"/>
<path fill-rule="evenodd" clip-rule="evenodd" d="M111.17 32.2646L110.816 31.6089L107.886 26.2874V35.8743H104.396V19H107.584L112.666 28.2355L117.719 19H120.948V35.8743H117.455V26.235L114.503 31.6089L114.149 32.2646H111.17Z" fill="white"/>
<path fill-rule="evenodd" clip-rule="evenodd" d="M152.576 32.63C154.088 32.63 155.305 32.1647 156.224 31.2313C157.143 30.2976 157.602 29.0331 157.602 27.4374C157.602 25.8685 157.14 24.6093 156.218 23.6635C155.295 22.7183 154.08 22.2438 152.576 22.2438C151.061 22.2438 149.844 22.7183 148.926 23.6635C148.007 24.6093 147.547 25.8685 147.547 27.4374C147.547 29.0331 148.004 30.2976 148.919 31.2313C149.833 32.1647 151.053 32.63 152.576 32.63ZM152.576 19C153.45 19 154.296 19.1042 155.113 19.3135C155.932 19.5225 156.706 19.8529 157.439 20.3013C158.169 20.7509 158.804 21.3002 159.347 21.9504C159.891 22.5991 160.319 23.395 160.633 24.3359C160.948 25.2781 161.106 26.3118 161.106 27.4372C161.106 28.5625 160.948 29.5958 160.633 30.5374C160.319 31.48 159.891 32.2757 159.347 32.9256C158.804 33.5746 158.169 34.1244 157.439 34.5735C156.706 35.0214 155.932 35.3535 155.113 35.5616C154.296 35.7706 153.45 35.8743 152.576 35.8743C151.69 35.8743 150.84 35.7706 150.022 35.5616C149.204 35.3535 148.43 35.0214 147.704 34.5735C146.978 34.1244 146.346 33.5746 145.807 32.9256C145.27 32.2757 144.842 31.48 144.528 30.5374C144.213 29.5958 144.056 28.5625 144.056 27.4372C144.056 26.3217 144.213 25.2952 144.528 24.3577C144.842 23.4204 145.27 22.6264 145.807 21.9763C146.346 21.3266 146.978 20.775 147.704 20.3223C148.43 19.8679 149.204 19.5351 150.022 19.321C150.84 19.1078 151.69 19 152.576 19Z" fill="white"/>
<path fill-rule="evenodd" clip-rule="evenodd" d="M199.348 35.8743H195.122L190.095 29.9223L187.705 32.762V35.8743H184.214V19H187.705V27.8954L195.318 19H199.401L192.247 27.4108L199.348 35.8743Z" fill="white"/>
<path fill-rule="evenodd" clip-rule="evenodd" d="M237.866 35.8743H233.64L228.612 29.9223L226.223 32.762V35.8743H222.731V19H226.223V27.8954L233.835 19H237.919L230.764 27.4108L237.866 35.8743Z" fill="white"/>
<path fill-rule="evenodd" clip-rule="evenodd" d="M270.948 19H267.025L260.973 35.8743H264.465L265.659 32.5529H265.66L266.825 29.3086H266.814L268.994 23.2788L273.508 35.8743H277L270.948 19Z" fill="white"/>
<path fill-rule="evenodd" clip-rule="evenodd" d="M151.293 52.5835C151.293 53.2535 150.96 53.8014 150.296 54.2253C149.631 54.6503 148.725 54.862 147.579 54.862C147.109 54.862 146.655 54.8061 146.215 54.6933C145.775 54.5794 145.402 54.4344 145.095 54.2582C144.789 54.0813 144.535 53.8908 144.334 53.6835C144.133 53.4778 144.007 53.2772 143.955 53.0831L145.549 52.5598C145.589 52.7343 145.827 52.9153 146.263 53.1041C146.698 53.2924 147.177 53.3867 147.699 53.3867C148.236 53.3867 148.704 53.311 149.104 53.1609C149.505 53.0099 149.705 52.8177 149.705 52.5835C149.705 52.3691 149.556 52.1878 149.26 52.0387C148.963 51.8896 148.419 51.7429 147.627 51.5962C147.157 51.5118 146.72 51.4006 146.316 51.2597C145.913 51.1191 145.549 50.9523 145.224 50.7599C144.899 50.568 144.644 50.3386 144.457 50.0723C144.269 49.8076 144.176 49.5234 144.176 49.2215C144.176 48.6627 144.491 48.1771 145.122 47.7674C145.753 47.3561 146.558 47.1504 147.537 47.1504C148.122 47.1504 148.672 47.2364 149.185 47.4066C149.699 47.578 150.115 47.7996 150.436 48.0737C150.756 48.3475 150.96 48.6407 151.048 48.9542L149.46 49.4654C149.4 49.2242 149.183 49.0226 148.809 48.8616C148.435 48.7014 147.971 48.6206 147.418 48.6206C146.964 48.6206 146.575 48.6709 146.25 48.7722C145.926 48.8734 145.764 49.0117 145.764 49.1852C145.764 49.3573 145.939 49.5234 146.29 49.686C146.64 49.8482 147.145 49.9927 147.806 50.1204C149.016 50.3621 149.899 50.6818 150.457 51.0777C151.014 51.4748 151.293 51.9764 151.293 52.5835Z" fill="white"/>
<path fill-rule="evenodd" clip-rule="evenodd" d="M162.898 54.8609H161.304V48.6616H158.969V47.1855H165.244V48.6616H162.898V54.8609Z" fill="white"/>
<path fill-rule="evenodd" clip-rule="evenodd" d="M181.005 47.1855V50.9106C181.005 51.4215 180.933 51.8953 180.79 52.332C180.646 52.7685 180.451 53.1395 180.204 53.4445C179.957 53.7508 179.669 54.0111 179.338 54.2269C179.008 54.4444 178.657 54.6027 178.285 54.7067C177.913 54.8094 177.528 54.8609 177.13 54.8609C176.732 54.8609 176.347 54.8094 175.974 54.7067C175.602 54.6027 175.25 54.4444 174.918 54.2269C174.586 54.0111 174.296 53.7508 174.049 53.4445C173.802 53.1395 173.607 52.7685 173.464 52.332C173.321 51.8953 173.249 51.4215 173.249 50.9106V47.1855H174.843V50.9106C174.843 51.6719 175.052 52.2745 175.47 52.7187C175.887 53.163 176.441 53.3856 177.13 53.3856C177.818 53.3856 178.371 53.163 178.789 52.7187C179.207 52.2745 179.416 51.6719 179.416 50.9106V47.1855H181.005Z" fill="white"/>
<path fill-rule="evenodd" clip-rule="evenodd" d="M191.809 48.6616H190.841V53.3856H191.809C192.298 53.3856 192.717 53.3283 193.066 53.2128C193.413 53.0975 193.684 52.9303 193.877 52.7103C194.071 52.4906 194.209 52.2426 194.295 51.9695C194.38 51.6964 194.424 51.38 194.424 51.0237C194.424 50.6663 194.38 50.3509 194.295 50.078C194.209 49.8039 194.071 49.5569 193.877 49.336C193.684 49.1168 193.413 48.9493 193.066 48.8335C192.717 48.7192 192.298 48.6616 191.809 48.6616ZM191.81 47.1855C193.155 47.1855 194.192 47.5159 194.92 48.176C195.648 48.8371 196.013 49.7862 196.013 51.0237C196.013 52.2612 195.648 53.2103 194.92 53.8702C194.192 54.5302 193.155 54.8609 191.81 54.8609H189.254V47.1855H191.81Z" fill="white"/>
<path fill-rule="evenodd" clip-rule="evenodd" d="M204.322 54.8609H205.915V47.1855H204.322V54.8609Z" fill="white"/>
<path fill-rule="evenodd" clip-rule="evenodd" d="M218.039 53.3856C218.728 53.3856 219.281 53.1732 219.699 52.7483C220.118 52.3243 220.326 51.7496 220.326 51.0237C220.326 50.3098 220.116 49.7372 219.697 49.3072C219.276 48.8768 218.724 48.6616 218.039 48.6616C217.351 48.6616 216.798 48.8768 216.38 49.3072C215.962 49.7372 215.753 50.3098 215.753 51.0237C215.753 51.7496 215.961 52.3243 216.377 52.7483C216.793 53.1732 217.347 53.3856 218.039 53.3856ZM218.04 47.1855C218.438 47.1855 218.824 47.2336 219.196 47.3281C219.568 47.4241 219.92 47.5732 220.252 47.7782C220.584 47.9824 220.874 48.2316 221.121 48.5277C221.368 48.8235 221.563 49.1841 221.706 49.6134C221.849 50.0424 221.921 50.512 221.921 51.0237C221.921 51.5344 221.849 52.0047 221.706 52.433C221.563 52.862 221.368 53.2236 221.121 53.5187C220.874 53.8148 220.584 54.0652 220.252 54.269C219.92 54.473 219.568 54.623 219.196 54.7185C218.824 54.8135 218.438 54.8609 218.04 54.8609C217.638 54.8609 217.251 54.8135 216.879 54.7185C216.506 54.623 216.155 54.473 215.825 54.269C215.495 54.0652 215.207 53.8148 214.962 53.5187C214.718 53.2236 214.524 52.862 214.381 52.433C214.237 52.0047 214.166 51.5344 214.166 51.0237C214.166 50.5161 214.237 50.0489 214.381 49.6228C214.524 49.196 214.718 48.8351 214.962 48.5403C215.207 48.2435 215.495 47.9923 215.825 47.7866C216.155 47.5812 216.506 47.4292 216.879 47.3313C217.251 47.2346 217.638 47.1855 218.04 47.1855Z" fill="white"/>
<path fill-rule="evenodd" clip-rule="evenodd" d="M237.221 52.5835C237.221 53.2535 236.889 53.8014 236.224 54.2253C235.559 54.6503 234.654 54.862 233.508 54.862C233.038 54.862 232.583 54.8061 232.144 54.6933C231.704 54.5794 231.331 54.4344 231.024 54.2582C230.718 54.0813 230.465 53.8908 230.263 53.6835C230.062 53.4778 229.936 53.2772 229.884 53.0831L231.478 52.5598C231.517 52.7343 231.755 52.9153 232.192 53.1041C232.628 53.2924 233.106 53.3867 233.627 53.3867C234.164 53.3867 234.633 53.311 235.033 53.1609C235.433 53.0099 235.633 52.8177 235.633 52.5835C235.633 52.3691 235.485 52.1878 235.188 52.0387C234.892 51.8896 234.347 51.7429 233.556 51.5962C233.086 51.5118 232.649 51.4006 232.245 51.2597C231.841 51.1191 231.477 50.9523 231.152 50.7599C230.828 50.568 230.573 50.3386 230.385 50.0723C230.198 49.8076 230.105 49.5234 230.105 49.2215C230.105 48.6627 230.421 48.1771 231.051 47.7674C231.682 47.3561 232.487 47.1504 233.466 47.1504C234.051 47.1504 234.601 47.2364 235.114 47.4066C235.628 47.578 236.044 47.7996 236.364 48.0737C236.685 48.3475 236.889 48.6407 236.977 48.9542L235.388 49.4654C235.329 49.2242 235.112 49.0226 234.738 48.8616C234.363 48.7014 233.9 48.6206 233.347 48.6206C232.893 48.6206 232.504 48.6709 232.18 48.7722C231.855 48.8734 231.693 49.0117 231.693 49.1852C231.693 49.3573 231.869 49.5234 232.219 49.686C232.569 49.8482 233.074 49.9927 233.735 50.1204C234.944 50.3621 235.828 50.6818 236.386 51.0777C236.942 51.4748 237.221 51.9764 237.221 52.5835Z" fill="white"/>
<path fill-rule="evenodd" clip-rule="evenodd" d="M104.177 51.5419H141.282V50.4707H104.177V51.5419Z" fill="white"/>
<path fill-rule="evenodd" clip-rule="evenodd" d="M239.894 51.5419H277V50.4707H239.894V51.5419Z" fill="white"/>
</svg>
